<svg width="20" height="20" viewBox="0 0 20 20" fill="none" xmlns="http://www.w3.org/2000/svg">
<path d="M10 20C11.125 20 12.125 19.25 12.375 18.125C12.5 17.75 12.25 17.5 11.875 17.5H8.125C7.75 17.5 7.5 17.75 7.625 18.125C7.875 19.25 8.875 20 10 20ZM3.75 6.25C3.75 2.75 6.5 0 10 0C13.5 0 16.25 2.75 16.25 6.25V10L18.375 13.25C18.625 13.5 18.75 13.875 18.75 14.25C18.75 15.25 17.875 16.125 16.875 16.125H3.125C2.125 16.25 1.25 15.375 1.25 14.375C1.25 14 1.375 13.625 1.625 13.375L3.75 10.125V6.25Z" fill="currentColor"/>
</svg>
