<svg width="20" height="20" viewBox="0 0 20 20" fill="none" xmlns="http://www.w3.org/2000/svg">
<rect width="20" height="20" fill="white"/>
<path fill-rule="evenodd" clip-rule="evenodd" d="M10 2.5C8.01088 2.5 6.10322 3.29018 4.6967 4.6967C3.29018 6.10322 2.5 8.01088 2.5 10C2.5 11.9891 3.29018 13.8968 4.6967 15.3033C6.10322 16.7098 8.01088 17.5 10 17.5H13.75C14.915 17.5 15.4975 17.5 15.9567 17.31C16.2601 17.1844 16.5358 17.0002 16.768 16.768C17.0002 16.5358 17.1844 16.2601 17.31 15.9567C17.5 15.4975 17.5 14.915 17.5 13.75V10C17.5 8.01088 16.7098 6.10322 15.3033 4.6967C13.8968 3.29018 11.9891 2.5 10 2.5ZM6.66667 9.16667C6.66667 8.94565 6.75446 8.73369 6.91074 8.57741C7.06702 8.42113 7.27899 8.33333 7.5 8.33333H12.5C12.721 8.33333 12.933 8.42113 13.0893 8.57741C13.2455 8.73369 13.3333 8.94565 13.3333 9.16667C13.3333 9.38768 13.2455 9.59964 13.0893 9.75592C12.933 9.9122 12.721 10 12.5 10H7.5C7.27899 10 7.06702 9.9122 6.91074 9.75592C6.75446 9.59964 6.66667 9.38768 6.66667 9.16667ZM9.16667 12.5C9.16667 12.279 9.25446 12.067 9.41074 11.9107C9.56702 11.7545 9.77899 11.6667 10 11.6667H12.5C12.721 11.6667 12.933 11.7545 13.0893 11.9107C13.2455 12.067 13.3333 12.279 13.3333 12.5C13.3333 12.721 13.2455 12.933 13.0893 13.0893C12.933 13.2455 12.721 13.3333 12.5 13.3333H10C9.77899 13.3333 9.56702 13.2455 9.41074 13.0893C9.25446 12.933 9.16667 12.721 9.16667 12.5Z" fill="#9B99A2"/>
</svg>
