<svg width="32" height="32" viewBox="0 0 32 32" fill="none" xmlns="http://www.w3.org/2000/svg">
<rect width="32" height="32" fill="none"/>
<path d="M8.33333 4C7.18406 4 6.08186 4.45655 5.2692 5.2692C4.45655 6.08186 4 7.18406 4 8.33333V23.6667C4 24.8159 4.45655 25.9181 5.2692 26.7308C6.08186 27.5435 7.18406 28 8.33333 28H23.6667C24.8159 28 25.9181 27.5435 26.7308 26.7308C27.5435 25.9181 28 24.8159 28 23.6667V8.33333C28 7.18406 27.5435 6.08186 26.7308 5.2692C25.9181 4.45655 24.8159 4 23.6667 4H8.33333ZM23.04 12.3733L14.0347 21.3693C13.8472 21.5566 13.593 21.6618 13.328 21.6618C13.063 21.6618 12.8088 21.5566 12.6213 21.3693L8.96 17.7067C8.78336 17.5171 8.6872 17.2664 8.69177 17.0073C8.69634 16.7482 8.80129 16.5011 8.9845 16.3178C9.16772 16.1346 9.4149 16.0297 9.67397 16.0251C9.93304 16.0205 10.1838 16.1167 10.3733 16.2933L13.3293 19.248L21.6267 10.9587C21.7196 10.8659 21.83 10.7923 21.9514 10.7421C22.0728 10.692 22.2029 10.6662 22.3343 10.6663C22.4656 10.6665 22.5957 10.6925 22.717 10.7429C22.8383 10.7932 22.9485 10.867 23.0413 10.96C23.1341 11.053 23.2077 11.1633 23.2579 11.2847C23.308 11.4061 23.3338 11.5362 23.3337 11.6676C23.3335 11.799 23.3075 11.929 23.2571 12.0503C23.2068 12.1717 23.133 12.2819 23.04 12.3747" fill="#FF286A"/>
</svg>
