<svg width="32" height="32" viewBox="0 0 32 32" fill="none" xmlns="http://www.w3.org/2000/svg">
<rect width="32" height="32" fill="none"/>
<path d="M8.33333 4C7.18406 4 6.08186 4.45655 5.2692 5.2692C4.45655 6.08186 4 7.18406 4 8.33333V23.6667C4 24.8159 4.45655 25.9181 5.2692 26.7308C6.08186 27.5435 7.18406 28 8.33333 28H23.6667C24.8159 28 25.9181 27.5435 26.7308 26.7308C27.5435 25.9181 28 24.8159 28 23.6667V8.33333C28 7.18406 27.5435 6.08186 26.7308 5.2692C25.9181 4.45655 24.8159 4 23.6667 4H8.33333ZM6 8.33333C6 7.04533 7.04533 6 8.33333 6H23.6667C24.9547 6 26 7.04533 26 8.33333V23.6667C26 24.2855 25.7542 24.879 25.3166 25.3166C24.879 25.7542 24.2855 26 23.6667 26H8.33333C7.71449 26 7.121 25.7542 6.68342 25.3166C6.24583 24.879 6 24.2855 6 23.6667V8.33333ZM23.04 12.3733C23.1383 12.2818 23.2171 12.1714 23.2717 12.0487C23.3264 11.9261 23.3558 11.7936 23.3581 11.6594C23.3605 11.5251 23.3358 11.3917 23.2855 11.2672C23.2352 11.1427 23.1603 11.0296 23.0654 10.9346C22.9704 10.8397 22.8573 10.7648 22.7328 10.7145C22.6083 10.6642 22.4749 10.6395 22.3406 10.6419C22.2064 10.6442 22.0739 10.6736 21.9513 10.7283C21.8286 10.7829 21.7182 10.8618 21.6267 10.96L13.3293 19.248L10.3733 16.2933C10.1838 16.1167 9.93304 16.0205 9.67397 16.0251C9.4149 16.0297 9.16772 16.1346 8.9845 16.3178C8.80129 16.5011 8.69634 16.7482 8.69177 17.0073C8.6872 17.2664 8.78336 17.5171 8.96 17.7067L12.62 21.368C12.8075 21.5553 13.0617 21.6605 13.3267 21.6605C13.5917 21.6605 13.8458 21.5553 14.0333 21.368L23.04 12.3733Z" fill="#F6F5F4"/>
</svg>
