<svg width="24" height="24" viewBox="0 0 24 24" fill="none" xmlns="http://www.w3.org/2000/svg">
<rect width="24" height="24" transform="matrix(-1 0 0 1 24 0)" fill="none"/>
<path d="M11.625 2.25C14.1106 2.25273 16.4935 3.24133 18.2511 4.99889C20.0087 6.75645 20.9973 9.13943 21 11.625V19.5309C20.9995 19.9204 20.8446 20.2938 20.5692 20.5692C20.2938 20.8446 19.9204 20.9995 19.5309 21H11.625C9.1386 21 6.75403 20.0123 4.99587 18.2541C3.23772 16.496 2.25 14.1114 2.25 11.625C2.25 9.1386 3.23772 6.75403 4.99587 4.99587C6.75403 3.23772 9.1386 2.25 11.625 2.25ZM15.75 13.125C15.9725 13.125 16.19 13.059 16.375 12.9354C16.56 12.8118 16.7042 12.6361 16.7894 12.4305C16.8745 12.225 16.8968 11.9988 16.8534 11.7805C16.81 11.5623 16.7028 11.3618 16.5455 11.2045C16.3882 11.0472 16.1877 10.94 15.9695 10.8966C15.7512 10.8532 15.525 10.8755 15.3195 10.9606C15.1139 11.0458 14.9382 11.19 14.8146 11.375C14.691 11.56 14.625 11.7775 14.625 12C14.625 12.2984 14.7435 12.5845 14.9545 12.7955C15.1655 13.0065 15.4516 13.125 15.75 13.125ZM11.625 13.125C11.8475 13.125 12.065 13.059 12.25 12.9354C12.435 12.8118 12.5792 12.6361 12.6644 12.4305C12.7495 12.225 12.7718 11.9988 12.7284 11.7805C12.685 11.5623 12.5778 11.3618 12.4205 11.2045C12.2632 11.0472 12.0627 10.94 11.8445 10.8966C11.6262 10.8532 11.4 10.8755 11.1945 10.9606C10.9889 11.0458 10.8132 11.19 10.6896 11.375C10.566 11.56 10.5 11.7775 10.5 12C10.5 12.2984 10.6185 12.5845 10.8295 12.7955C11.0405 13.0065 11.3266 13.125 11.625 13.125ZM7.5 13.125C7.7225 13.125 7.94001 13.059 8.12502 12.9354C8.31002 12.8118 8.45422 12.6361 8.53936 12.4305C8.62451 12.225 8.64679 11.9988 8.60338 11.7805C8.55998 11.5623 8.45283 11.3618 8.29549 11.2045C8.13816 11.0472 7.93771 10.94 7.71948 10.8966C7.50125 10.8532 7.27505 10.8755 7.06948 10.9606C6.86392 11.0458 6.68821 11.19 6.5646 11.375C6.44098 11.56 6.375 11.7775 6.375 12C6.375 12.2984 6.49353 12.5845 6.70451 12.7955C6.91548 13.0065 7.20163 13.125 7.5 13.125Z" fill="currentColor"/>
</svg>
