<svg width="20" height="20" viewBox="0 0 20 20" fill="none" xmlns="http://www.w3.org/2000/svg">
<g clip-path="url(#clip0_515_4304)">
<rect width="20" height="20" fill="white"/>
<path d="M5.8161 2.56176C6.55365 2.43609 7.31001 2.47754 8.02941 2.68307C8.74881 2.88859 9.41291 3.25294 9.97277 3.74926L10.0036 3.77676L10.0319 3.75176C10.5663 3.28284 11.1945 2.93325 11.8746 2.72633C12.5547 2.5194 13.2712 2.45989 13.9761 2.55176L14.1811 2.58176C15.0697 2.73518 15.9002 3.12605 16.5848 3.71298C17.2694 4.29991 17.7825 5.06105 18.0698 5.91579C18.3571 6.77053 18.4079 7.68706 18.2169 8.56832C18.0258 9.44958 17.5999 10.2628 16.9844 10.9218L16.8344 11.0759L16.7944 11.1101L10.5861 17.2593C10.4428 17.4011 10.253 17.4861 10.0518 17.4987C9.85065 17.5112 9.65174 17.4505 9.49194 17.3276L9.4136 17.2593L3.16944 11.0743C2.50795 10.4306 2.03752 9.61649 1.81023 8.72198C1.58295 7.82747 1.60769 6.88751 1.8817 6.00619C2.15572 5.12487 2.66832 4.33659 3.36274 3.72865C4.05716 3.12071 4.90629 2.71684 5.8161 2.56176Z" fill="#9B99A2"/>
</g>
<defs>
<clipPath id="clip0_515_4304">
<rect width="20" height="20" fill="white"/>
</clipPath>
</defs>
</svg>
