<svg width="24" height="24" viewBox="0 0 24 24" fill="none" xmlns="http://www.w3.org/2000/svg">
<rect width="24" height="24" fill="none"/>
<path d="M13.6111 2.55742C13.1603 2.19743 12.5896 2 12 2C11.4104 2 10.8397 2.19743 10.3889 2.55742L2.88889 8.5523C2.61051 8.77458 2.38673 9.05177 2.2332 9.3645C2.07966 9.67724 2.00008 10.018 2 10.3629V20.1579C2 21.1747 2.87111 22 3.94444 22H7.27778C7.79348 22 8.28805 21.8059 8.65271 21.4604C9.01736 21.115 9.22222 20.6464 9.22222 20.1579V15.9441C9.22222 15.2283 9.82444 14.6472 10.5744 14.6282H13.4256C13.7875 14.6373 14.1314 14.7799 14.384 15.0257C14.6366 15.2715 14.7779 15.601 14.7778 15.9441V20.1579C14.7778 21.1747 15.6489 22 16.7222 22H20.0556C20.5713 22 21.0658 21.8059 21.4305 21.4604C21.7951 21.115 22 20.6464 22 20.1579V10.3618C21.9999 10.0169 21.9203 9.67618 21.7668 9.36345C21.6133 9.05072 21.3895 8.77352 21.1111 8.55125L13.6111 2.55742Z" fill="currentColor"/>
</svg>
