<svg width="20" height="20" viewBox="0 0 20 20" fill="none" xmlns="http://www.w3.org/2000/svg">
<rect width="20" height="20" fill="white"/>
<path fill-rule="evenodd" clip-rule="evenodd" d="M2.5 10C2.5 9.33696 2.76339 8.70107 3.23223 8.23223C3.70107 7.76339 4.33696 7.5 5 7.5H15C15.663 7.5 16.2989 7.76339 16.7678 8.23223C17.2366 8.70107 17.5 9.33696 17.5 10V15.8333C17.5 16.4964 17.2366 17.1323 16.7678 17.6011C16.2989 18.0699 15.663 18.3333 15 18.3333H5C4.33696 18.3333 3.70107 18.0699 3.23223 17.6011C2.76339 17.1323 2.5 16.4964 2.5 15.8333V10ZM10.8333 11.6667C10.8333 11.4457 10.7455 11.2337 10.5893 11.0774C10.433 10.9211 10.221 10.8333 10 10.8333C9.77899 10.8333 9.56702 10.9211 9.41074 11.0774C9.25446 11.2337 9.16667 11.4457 9.16667 11.6667V14.1667C9.16667 14.3877 9.25446 14.5996 9.41074 14.7559C9.56702 14.9122 9.77899 15 10 15C10.221 15 10.433 14.9122 10.5893 14.7559C10.7455 14.5996 10.8333 14.3877 10.8333 14.1667V11.6667Z" fill="#9B99A2"/>
<path d="M6.66602 8.33333V5.83333C6.66602 4.94928 7.0172 4.10143 7.64233 3.47631C8.26745 2.85119 9.11529 2.5 9.99935 2.5C10.8834 2.5 11.7313 2.85119 12.3564 3.47631C12.9815 4.10143 13.3327 4.94928 13.3327 5.83333V8.33333" stroke="#9B99A2" stroke-width="2" stroke-linecap="round" stroke-linejoin="round"/>
</svg>
