<svg width="25" height="24" viewBox="0 0 25 24" fill="none" xmlns="http://www.w3.org/2000/svg">
<rect width="24" height="24" transform="translate(0.5)" fill="none"/>
<mask id="mask0_265_5440" style="mask-type:alpha" maskUnits="userSpaceOnUse" x="0" y="0" width="25" height="24">
<rect x="0.5" width="24" height="24" fill="#D9D9D9"/>
</mask>
<g mask="url(#mask0_265_5440)">
<path d="M5.625 22C5.04062 22 4.54036 21.8042 4.12422 21.4125C3.70807 21.0208 3.5 20.55 3.5 20V8C3.5 7.45 3.70807 6.97917 4.12422 6.5875C4.54036 6.19583 5.04062 6 5.625 6H7.75C7.75 4.9 8.16615 3.95833 8.99844 3.175C9.83073 2.39167 10.8313 2 12 2C13.1687 2 14.1693 2.39167 15.0016 3.175C15.8339 3.95833 16.25 4.9 16.25 6H18.375C18.9594 6 19.4596 6.19583 19.8758 6.5875C20.2919 6.97917 20.5 7.45 20.5 8V20C20.5 20.55 20.2919 21.0208 19.8758 21.4125C19.4596 21.8042 18.9594 22 18.375 22H5.625ZM9.875 6H14.125C14.125 5.45 13.9169 4.97917 13.5008 4.5875C13.0846 4.19583 12.5844 4 12 4C11.4156 4 10.9154 4.19583 10.4992 4.5875C10.0831 4.97917 9.875 5.45 9.875 6ZM15.1875 11C15.4885 11 15.7409 10.9042 15.9445 10.7125C16.1482 10.5208 16.25 10.2833 16.25 10V8H14.125V10C14.125 10.2833 14.2268 10.5208 14.4305 10.7125C14.6341 10.9042 14.8865 11 15.1875 11ZM8.8125 11C9.11354 11 9.36589 10.9042 9.56953 10.7125C9.77318 10.5208 9.875 10.2833 9.875 10V8H7.75V10C7.75 10.2833 7.85182 10.5208 8.05547 10.7125C8.25911 10.9042 8.51146 11 8.8125 11Z" fill="currentColor"/>
</g>
</svg>
