<svg width="20" height="20" viewBox="0 0 20 20" fill="none" xmlns="http://www.w3.org/2000/svg">
<rect width="20" height="20" fill="white"/>
<path d="M15.3215 16.6668H4.67982C4.30982 16.6668 3.99315 16.5349 3.72982 16.271C3.46593 16.0077 3.33398 15.691 3.33398 15.321V4.67933C3.33398 4.30933 3.46593 3.99266 3.72982 3.72933C3.99315 3.46544 4.30982 3.3335 4.67982 3.3335H15.3215C15.6915 3.3335 16.0082 3.46544 16.2715 3.72933C16.5354 3.99266 16.6673 4.30933 16.6673 4.67933V15.321C16.6673 15.691 16.5354 16.0077 16.2715 16.271C16.0082 16.5349 15.6915 16.6668 15.3215 16.6668ZM4.80815 11.6352H15.1932V10.7052H4.80815V11.6352ZM4.80815 13.8785H15.1932V13.141H4.80815V13.8785Z" fill="#9B99A2"/>
</svg>
